<svg width="160" height="160" viewBox="0 0 160 160" fill="none" xmlns="http://www.w3.org/2000/svg">
<path d="M80 140C113.137 140 140 113.137 140 80C140 46.8629 113.137 20 80 20C46.8629 20 20 46.8629 20 80C20 113.137 46.8629 140 80 140Z" fill="url(#paint0_linear)"/>
<path fill-rule="evenodd" clip-rule="evenodd" d="M20.4824 87.634C33.0342 84.1776 47.2793 84.8383 63.218 89.6159C90.9623 97.9323 111.393 73.9323 134.767 89.6159C136.147 90.542 137.457 91.5029 138.698 92.4988C132.947 119.637 108.852 140 80.0014 140C49.4504 140 24.2326 117.166 20.4824 87.634H20.4824Z" fill="url(#paint1_linear)"/>
<path fill-rule="evenodd" clip-rule="evenodd" d="M23.6289 100.597C34.0583 93.7199 44.6557 92.0883 55.4209 95.7025C72.1091 101.305 81.3078 88.1473 103.95 101.305C119.704 110.461 128.071 99.0158 136.502 100.237C128.198 123.417 106.036 140 80.0001 140C54.0995 140 32.0319 123.589 23.6289 100.597L23.6289 100.597Z" fill="url(#paint2_linear)"/>
<path fill-rule="evenodd" clip-rule="evenodd" d="M22.707 97.869C54.7423 93.7759 52.9249 106.309 86.7079 110.641C107.769 113.341 124.928 106.727 134.99 104.042C125.722 125.211 104.589 140 80.0012 140C53.0872 140 30.3121 122.279 22.707 97.869Z" fill="url(#paint3_linear)"/>
<path fill-rule="evenodd" clip-rule="evenodd" d="M42.1631 126.567C40.9898 125.612 39.8532 124.614 38.7559 123.575C42.2004 122.086 52.9607 121 65.7015 121C81.2207 121 93.8015 122.612 93.8015 124.6C93.8015 126.588 81.2207 128.2 65.7015 128.2C55.8483 128.2 47.1795 127.55 42.1631 126.567Z" fill="url(#paint4_linear)"/>
<path opacity="0.2" d="M126.8 62.9999C137.735 62.9999 146.6 54.1351 146.6 43.1999C146.6 32.2647 137.735 23.3999 126.8 23.3999C115.865 23.3999 107 32.2647 107 43.1999C107 54.1351 115.865 62.9999 126.8 62.9999Z" fill="url(#paint5_linear)"/>
<path fill-rule="evenodd" clip-rule="evenodd" d="M20.5527 71.8211C24.5419 42.5532 49.6371 20 79.9999 20C91.8139 20 102.83 23.4144 112.116 29.3102C106.138 32.6159 101.88 37.2136 99.3413 43.1031C93.3711 56.9539 82.6403 64.256 62.3225 59.6533C46.0691 55.9714 30.0008 61.1485 20.5527 71.8211Z" fill="url(#paint6_linear)"/>
<path fill-rule="evenodd" clip-rule="evenodd" d="M15.0371 69.184C15.7091 70.0309 16.6921 70.7112 17.9861 71.225C19.2801 71.7387 20.1782 71.7387 20.6804 71.225C20.6992 72.1382 21.2168 72.8004 22.2333 73.2114C23.7581 73.828 37.1747 78.5236 39.3164 76.5769C39.3803 77.4523 40.6324 78.1597 43.0728 78.6994C46.7335 79.5088 62.4564 82.7556 63.5971 80.7275C64.0663 81.7668 65.1091 82.3809 66.7253 82.5699C69.1496 82.8534 81.4675 84.4056 82.8853 82.2991C83.2748 82.8564 83.9128 83.1351 84.7994 83.1351C86.1292 83.1351 88.9669 83.1196 89.5324 82.5699C89.9094 82.2034 86.5214 79.155 79.3686 73.4248L61.529 65.0805L30.8897 61.2239L15.0371 69.184Z" fill="url(#paint7_linear)"/>
<path fill-rule="evenodd" clip-rule="evenodd" d="M55.2619 52.7597C55.3247 52.3224 55.7301 52.0187 56.1674 52.0815C56.6048 52.1442 56.9084 52.5496 56.8457 52.987L55.7935 60.3209C55.7308 60.7582 55.3254 61.0619 54.888 60.9992C54.4507 60.9364 54.147 60.531 54.2098 60.0937L55.2619 52.7597ZM52.2411 70.5326C52.3173 70.0973 52.7318 69.8063 53.1671 69.8825C53.6023 69.9587 53.8933 70.3732 53.8171 70.8084L44.3499 124.894C44.2737 125.329 43.8591 125.62 43.4239 125.544C42.9887 125.468 42.6977 125.053 42.7738 124.618L52.2411 70.5326Z" fill="url(#paint8_linear)"/>
<path fill-rule="evenodd" clip-rule="evenodd" d="M15.5836 66.9013C14.8599 67.5843 14.498 68.2615 14.498 68.9329C14.498 69.9401 14.6736 69.83 17.3963 69.83C19.2113 69.83 23.7398 69.7475 30.9816 69.5825C32.4189 69.5307 33.4789 68.4901 34.1616 66.4608C34.4385 69.241 35.6418 70.7394 37.7715 70.956C40.9659 71.281 51.8621 71.6692 59.4817 73.7432C67.1013 75.8173 70.0445 77.8886 71.6788 73.0886C72.0017 75.1307 72.9933 76.5087 74.6534 77.2225C76.3135 77.9364 80.911 79.7055 88.4459 82.5297C89.0574 82.8361 89.5036 82.717 89.7845 82.1725C90.2058 81.3556 88.688 78.4142 87.0527 76.244C85.4175 74.0739 79.8951 62.4074 64.1713 57.4897C62.631 55.7394 60.6906 54.8642 58.3503 54.8642C54.8397 54.8642 50.9388 52.1508 46.9117 54.3127C41.3091 54.058 36.3927 54.9282 32.1625 56.9232C27.9323 58.9182 22.406 62.2443 15.5836 66.9013Z" fill="url(#paint9_linear)"/>
<path fill-rule="evenodd" clip-rule="evenodd" d="M67.2699 122.362L62.335 114.936C62.1863 114.712 62.2479 114.411 62.4725 114.263C62.6971 114.115 62.9997 114.176 63.1484 114.4L68.0833 121.826C68.232 122.05 68.1704 122.351 67.9457 122.499C67.7211 122.647 67.4185 122.586 67.2699 122.362Z" fill="url(#paint10_linear)"/>
<path fill-rule="evenodd" clip-rule="evenodd" d="M56.7569 125.376C56.5758 125.574 56.2673 125.589 56.0679 125.408C55.8686 125.228 55.8538 124.921 56.035 124.722L66.4036 113.358C66.5848 113.159 66.8932 113.145 67.0926 113.325C67.2919 113.505 67.3067 113.813 67.1256 114.011L56.7569 125.376Z" fill="url(#paint11_linear)"/>
<path fill-rule="evenodd" clip-rule="evenodd" d="M70.5297 113.926H82.4341C81.4583 116.99 79.6568 118.478 77.0297 118.389C77.0297 118.389 72.6663 118.389 63.9395 118.389L70.5297 113.926Z" fill="url(#paint12_linear)"/>
<path fill-rule="evenodd" clip-rule="evenodd" d="M54.9531 101.842H68.8775C70.1119 111.505 72.8293 117.021 77.0296 118.389H63.9393C61.1387 118.051 59.0993 116.428 57.8212 113.52C56.543 110.612 55.587 106.719 54.9531 101.842Z" fill="url(#paint13_linear)"/>
<path fill-rule="evenodd" clip-rule="evenodd" d="M68.3878 102.739C68.2407 102.514 68.3044 102.213 68.53 102.066C68.7557 101.92 69.0579 101.983 69.205 102.208L82.2237 122.099C82.3708 122.324 82.3071 122.625 82.0814 122.771C81.8558 122.918 81.5536 122.854 81.4065 122.629L68.3878 102.739Z" fill="url(#paint14_linear)"/>
<path fill-rule="evenodd" clip-rule="evenodd" d="M72.0186 125.44C71.8375 125.639 71.529 125.654 71.3297 125.473C71.1303 125.293 71.1155 124.986 71.2967 124.787L81.6653 113.423C81.8465 113.224 82.1549 113.21 82.3543 113.39C82.5537 113.57 82.5684 113.877 82.3873 114.076L72.0186 125.44Z" fill="url(#paint15_linear)"/>
<path opacity="0.2" d="M126.8 62.9999C137.735 62.9999 146.6 54.1351 146.6 43.1999C146.6 32.2647 137.735 23.3999 126.8 23.3999C115.865 23.3999 107 32.2647 107 43.1999C107 54.1351 115.865 62.9999 126.8 62.9999Z" fill="url(#paint16_linear)"/>
<path d="M126.801 57.1999C134.533 57.1999 140.801 50.9319 140.801 43.2C140.801 35.468 134.533 29.2 126.801 29.2C119.069 29.2 112.801 35.468 112.801 43.2C112.801 50.9319 119.069 57.1999 126.801 57.1999Z" fill="url(#paint17_linear)"/>
<defs>
<linearGradient id="paint0_linear" x1="74.1709" y1="33.6988" x2="38.2026" y2="80" gradientUnits="userSpaceOnUse">
<stop stop-color="#C1FFF7"/>
<stop offset="1" stop-color="#93E9DE"/>
</linearGradient>
<linearGradient id="paint1_linear" x1="94.2476" y1="106.308" x2="82.3007" y2="122.669" gradientUnits="userSpaceOnUse">
<stop stop-color="#5A93EA"/>
<stop offset="1" stop-color="#3768B4"/>
</linearGradient>
<linearGradient id="paint2_linear" x1="73.1577" y1="111.78" x2="63.7519" y2="125.277" gradientUnits="userSpaceOnUse">
<stop stop-color="#5A93EA"/>
<stop offset="1" stop-color="#3768B4"/>
</linearGradient>
<linearGradient id="paint3_linear" x1="78.8486" y1="115.389" x2="77.0862" y2="121.703" gradientUnits="userSpaceOnUse">
<stop stop-color="#F9BB49"/>
<stop offset="1" stop-color="#F08523"/>
</linearGradient>
<linearGradient id="paint4_linear" x1="57.5661" y1="128.2" x2="57.5661" y2="121" gradientUnits="userSpaceOnUse">
<stop stop-color="#E87E1E" stop-opacity="0"/>
<stop offset="1" stop-color="#F07023"/>
</linearGradient>
<linearGradient id="paint5_linear" x1="126.8" y1="23.3999" x2="123.811" y2="51.3991" gradientUnits="userSpaceOnUse">
<stop stop-color="#F9BB49"/>
<stop offset="1" stop-color="#F08523"/>
</linearGradient>
<linearGradient id="paint6_linear" x1="72.43" y1="49.2226" x2="61.0498" y2="29.9879" gradientUnits="userSpaceOnUse">
<stop stop-color="#D3FFFA"/>
<stop offset="1" stop-color="#B7FFF6"/>
</linearGradient>
<linearGradient id="paint7_linear" x1="51.4082" y1="72.9075" x2="51.7971" y2="70.709" gradientUnits="userSpaceOnUse">
<stop stop-color="#5A93EA"/>
<stop offset="1" stop-color="#3768B4"/>
</linearGradient>
<linearGradient id="paint8_linear" x1="49.7691" y1="102.44" x2="46.1779" y2="47.7892" gradientUnits="userSpaceOnUse">
<stop stop-color="#DB593D"/>
<stop offset="1" stop-color="#F88461"/>
</linearGradient>
<linearGradient id="paint9_linear" x1="54.4211" y1="65.5578" x2="53.3915" y2="71.0542" gradientUnits="userSpaceOnUse">
<stop stop-color="#77EBFF"/>
<stop offset="1" stop-color="#4D86DE"/>
</linearGradient>
<linearGradient id="paint10_linear" x1="64.9907" y1="119.938" x2="63.5201" y2="113.841" gradientUnits="userSpaceOnUse">
<stop stop-color="#DB593D"/>
<stop offset="1" stop-color="#F88461"/>
</linearGradient>
<linearGradient id="paint11_linear" x1="60.8644" y1="121.654" x2="58.0019" y2="112.57" gradientUnits="userSpaceOnUse">
<stop stop-color="#DB593D"/>
<stop offset="1" stop-color="#F88461"/>
</linearGradient>
<linearGradient id="paint12_linear" x1="72.9657" y1="116.239" x2="73.0497" y2="115.854" gradientUnits="userSpaceOnUse">
<stop stop-color="#5A93EA"/>
<stop offset="1" stop-color="#3768B4"/>
</linearGradient>
<linearGradient id="paint13_linear" x1="66.6488" y1="104.765" x2="65.6961" y2="114.598" gradientUnits="userSpaceOnUse">
<stop stop-color="#77EBFF"/>
<stop offset="1" stop-color="#4D86DE"/>
</linearGradient>
<linearGradient id="paint14_linear" x1="74.8359" y1="116.287" x2="71.3536" y2="101.137" gradientUnits="userSpaceOnUse">
<stop stop-color="#DB593D"/>
<stop offset="1" stop-color="#F88461"/>
</linearGradient>
<linearGradient id="paint15_linear" x1="76.1261" y1="121.719" x2="73.2636" y2="112.635" gradientUnits="userSpaceOnUse">
<stop stop-color="#DB593D"/>
<stop offset="1" stop-color="#F88461"/>
</linearGradient>
<linearGradient id="paint16_linear" x1="126.8" y1="23.3999" x2="123.811" y2="51.3991" gradientUnits="userSpaceOnUse">
<stop stop-color="#F9BB49"/>
<stop offset="1" stop-color="#F08523"/>
</linearGradient>
<linearGradient id="paint17_linear" x1="126.801" y1="29.2" x2="124.687" y2="48.9974" gradientUnits="userSpaceOnUse">
<stop stop-color="#F9BB49"/>
<stop offset="1" stop-color="#F08523"/>
</linearGradient>
</defs>
</svg>
