<svg width="97" height="24" viewBox="0 0 97 24" fill="none" xmlns="http://www.w3.org/2000/svg">
<path fill-rule="evenodd" clip-rule="evenodd" d="M42.8819 3.73493C42.8819 4.68914 42.1301 5.49877 41.147 5.52768C40.1639 5.52768 39.3542 4.74696 39.3542 3.76384C39.3542 2.80963 40.1349 2.02892 41.0892 2C42.0434 2 42.853 2.7518 42.8819 3.73493ZM11.7681 19.3493H7.43075C6.27388 19.3493 6.18561 18.5321 6.09576 17.7004L6.09576 17.7004L6.09576 17.7004L6.09575 17.7004L6.09575 17.7003L6.09575 17.7003L6.09574 17.7003L6.09574 17.7003C6.08005 17.555 6.06431 17.4093 6.04281 17.2674V11.0795C6.04281 11.0795 6.99702 11.0506 8.06689 11.0506C8.23905 11.0506 8.41791 11.0469 8.60233 11.0431L8.60241 11.0431H8.60247H8.60254H8.6026H8.60267H8.60273H8.6028C9.68826 11.0209 10.9662 10.9947 12.2018 11.6867C11.45 10.0964 9.83073 9.11323 8.06689 9.17106H6.07172V7.17589C6.07172 7.17589 6.07172 5.44097 5.63799 4.94941H8.50062L8.6575 4.94938C11.0401 4.94878 12.9095 4.9483 14.862 6.22168C14.862 6.22168 14.4861 2.95424 9.71507 2.95424H0.404297C0.404297 2.95424 2.02356 4.34218 1.96573 7.14698L2.02356 18.424C2.02356 21.2577 3.15126 21.3445 3.15126 21.3445H12.3175C14.3994 21.3445 15.1223 19.8698 15.1223 19.0601L15.1512 17.9903C15.1512 17.9903 14.4861 19.3493 11.7681 19.3493ZM36.1734 18.3952V10.5013C36.1734 7.43623 33.6867 6.6266 31.8072 6.6266C29.4742 6.6266 28.6783 8.47633 28.3315 9.28247C28.3129 9.32561 28.2956 9.36576 28.2795 9.40248C27.7301 7.49406 25.7928 6.6266 24.2313 6.6266C21.253 6.6266 20.5012 9.46032 20.5012 9.46032C20.5012 9.46032 20.4434 6.71335 18.0434 6.71335H15.7013C15.7013 6.71335 17.0603 7.26274 17.0603 9.63381V18.3952C17.0603 21.2867 18.2169 21.3446 18.2169 21.3446H22.0916C21.1663 20.6506 20.6169 19.5518 20.6169 18.3663V10.588C20.6747 10.241 21.253 9.08441 22.9012 9.08441C23.8554 9.08441 24.8964 10.0675 24.8675 11.1663V18.3952C24.8675 21.3156 26.0241 21.3446 26.0241 21.3446H29.8988C28.9735 20.6217 28.4241 19.5518 28.4241 18.3663V10.588C28.8 9.46031 30.0144 8.82417 31.171 9.20007C32.0385 9.48923 32.6457 10.2699 32.6746 11.1952V18.3952C32.7036 21.3446 33.8313 21.3156 33.8313 21.3156H37.7059C36.7517 20.6217 36.2023 19.5518 36.1734 18.3952ZM44.413 21.3445C43.4877 20.6505 42.9383 19.5517 42.9383 18.3951L42.9094 18.3373V9.95179C42.9094 6.68435 41.2034 6.68435 40.3649 6.68435H38.0227C38.0227 6.68435 39.3528 7.29157 39.3528 9.60481V18.424C39.3528 21.3734 40.5383 21.3445 40.5383 21.3445H44.413ZM54.8532 7.812C54.8532 7.812 54.4773 6.77105 52.8869 6.77105C50.458 6.77105 49.8797 9.66259 49.8797 9.66259C49.6773 7.37827 49.0701 6.71322 47.3641 6.71322H45.0219C45.0219 6.71322 46.381 7.26261 46.381 9.63368V18.3951C46.381 21.2866 47.5376 21.3444 47.5376 21.3444H51.4122C50.4869 20.6505 49.9376 19.5517 49.9376 18.3951V11.1951C50.0243 10.5879 50.3713 10.0385 50.8918 9.72042C52.193 8.85296 53.899 9.1132 54.911 10.2987L54.8532 7.812ZM75.1503 8.91094C74.4563 8.53504 73.6756 8.33264 72.8659 8.33264H71.8828V18.482C71.9117 19.6097 72.4611 20.6795 73.3864 21.3446H69.5407C69.5407 21.3446 68.3551 21.3446 68.3551 18.5109V8.33264L65.8973 8.30372C65.8973 8.30372 68.2106 7.17602 69.3093 6.27964C70.3214 5.44109 71.2178 4.45797 71.9117 3.35918V6.71337H75.1503V8.91094ZM84.6064 12.7564C83.4743 13.9338 82.4682 14.402 81.5718 14.8192C80.7511 15.2012 80.0223 15.5404 79.3727 16.342C79.3727 16.342 79.604 18.5974 81.31 19.3781C81.8883 19.6383 84.2883 20.5058 85.8208 17.8456V20.2166C85.8208 20.2166 84.8377 21.3732 81.6859 21.3732C77.898 21.3732 75.2956 18.395 75.2956 14.3468C75.2956 10.3565 77.4064 6.6842 81.4257 6.65528C85.3293 6.59745 87.469 9.77815 84.6064 12.7564ZM82.2353 11.8311C82.8715 10.6456 83.3919 7.63841 81.1944 7.8119C78.6498 8.01431 79.1414 14.7516 79.1414 14.7516C79.445 14.4166 79.8054 14.1763 80.1884 13.9211C80.8633 13.4713 81.6081 12.9748 82.2353 11.8311ZM58.871 19.6675C58.0035 19.6675 57.3674 18.7422 57.3674 17.8169C57.3674 15.1292 58.9882 14.1409 60.1635 13.4244C60.5814 13.1696 60.9429 12.9491 61.1553 12.6989V18.8578C61.1026 18.8984 61.0504 18.9435 60.9954 18.9911C60.6581 19.2828 60.2134 19.6675 58.871 19.6675ZM61.1553 11.282C60.8777 11.7656 60.0149 12.1327 58.9877 12.5697C56.6984 13.5437 53.5927 14.8651 54.3312 18.5976C54.765 20.7374 56.1818 21.3735 57.9746 21.3735C59.7095 21.3735 60.7794 20.4771 61.2131 19.6096C61.4734 21.2289 62.3119 21.3446 62.3119 21.3446H66.1866C65.2613 20.6506 64.683 19.5807 64.683 18.4241V10.1832C64.683 8.21696 62.5143 6.68444 60.2011 6.68444C58.8999 6.65553 57.6565 7.03143 56.5867 7.75431V10.2989C56.5867 10.2989 57.3963 8.27479 59.3915 8.27479C61.3577 8.27479 61.5023 9.25792 61.5023 9.74948C61.5312 10.27 61.4445 10.8193 61.1553 11.282ZM90.3025 19.7542C92.2687 19.7542 93.194 18.3952 93.1651 17.3542C93.1362 16.6313 92.7314 15.8795 91.6326 15.2723C90.9386 14.8964 90.2736 14.4916 89.6374 14.029C88.2206 12.9591 87.4977 11.8603 87.4688 10.1254C87.4109 8.15912 89.5218 6.6266 91.835 6.6266C93.1651 6.6266 94.4663 7.03142 95.5362 7.78322V10.241C95.5362 10.241 94.6976 8.21695 92.7892 8.21695C90.8519 8.21695 90.5916 9.20007 90.6205 9.69164C90.6205 9.95188 90.9964 10.7615 91.7193 11.1952C91.9236 11.3206 92.1367 11.4474 92.3544 11.5769C93.4929 12.2541 94.7548 13.0048 95.5072 14C96.0566 14.7229 96.3747 15.6193 96.4036 16.5446C96.4614 19.3494 93.7723 21.3446 91.141 21.3446C89.8398 21.3446 88.5675 20.9976 87.4688 20.3036V17.7012C87.4688 17.7012 88.2784 19.7542 90.3025 19.7542Z" fill="#23262F"/>
</svg>
