<svg width="48" height="48" viewBox="0 0 48 48" fill="none" xmlns="http://www.w3.org/2000/svg">
<path d="M22 31C22 30.4477 21.5523 30 21 30H8C6.89543 30 6 30.8954 6 32V38C6 41.3137 8.68629 44 12 44H21C21.5523 44 22 43.5523 22 43V31Z" fill="#58C27D"/>
<path d="M26 43C26 43.5523 26.4477 44 27 44H36C39.3137 44 42 41.3137 42 38V32C42 30.8954 41.1046 30 40 30H27C26.4477 30 26 30.4477 26 31V43Z" fill="#58C27D"/>
<path d="M22 17C22 16.4477 21.5523 16 21 16H8C5.79086 16 4 17.7909 4 20V22C4 24.2091 5.79086 26 8 26H21C21.5523 26 22 25.5523 22 25V17Z" fill="#58C27D"/>
<path d="M26 25C26 25.5523 26.4477 26 27 26H40C42.2091 26 44 24.2091 44 22V20C44 17.7909 42.2091 16 40 16H27C26.4477 16 26 16.4477 26 17V25Z" fill="#58C27D"/>
<path d="M14 8C14 5.79086 15.7909 4 18 4C20.2091 4 22 5.79086 22 8V11C22 11.5523 21.5523 12 21 12H18C15.7909 12 14 10.2091 14 8Z" fill="#58C27D"/>
<path d="M34 8C34 5.79086 32.2091 4 30 4C27.7909 4 26 5.79086 26 8V11C26 11.5523 26.4477 12 27 12H30C32.2091 12 34 10.2091 34 8Z" fill="#58C27D"/>
</svg>
