<svg width="24" height="24" viewBox="0 0 24 24" fill="none" xmlns="http://www.w3.org/2000/svg">
<path d="M11.0821 3.12771C11.4295 2.32266 12.571 2.32266 12.9184 3.12771L15.0984 8.1796C15.2455 8.52048 15.5694 8.75181 15.9395 8.78042L21.5302 9.21241C22.4272 9.28172 22.7836 10.4078 22.0898 10.9806L17.8854 14.4518C17.5889 14.6967 17.459 15.0899 17.5514 15.4632L18.8453 20.6916C19.0581 21.5514 18.1306 22.2429 17.3673 21.7935L12.5076 18.9326C12.1944 18.7482 11.806 18.7482 11.4929 18.9326L6.63317 21.7935C5.86987 22.2429 4.94234 21.5514 5.15513 20.6916L6.44907 15.4632C6.54146 15.0899 6.41158 14.6967 6.11503 14.4518L1.91064 10.9806C1.21688 10.4078 1.57329 9.28172 2.47027 9.21241L8.06092 8.78042C8.43109 8.75181 8.75494 8.52048 8.90204 8.1796L11.0821 3.12771Z" fill="#FFD166"/>
</svg>
