<svg width="48" height="48" viewBox="0 0 48 48" fill="none" xmlns="http://www.w3.org/2000/svg">
<path fill-rule="evenodd" clip-rule="evenodd" d="M44 24C44 35.0457 35.0457 44 24 44C12.9543 44 4 35.0457 4 24C4 12.9543 12.9543 4 24 4C35.0457 4 44 12.9543 44 24ZM17.9444 27.5299C17.6846 26.4563 16.6037 25.7966 15.5301 26.0563C14.4565 26.3161 13.7968 27.397 14.0566 28.4706C14.5824 30.6437 15.8721 32.5584 17.6826 33.9163C19.491 35.2726 21.7189 36.0002 24.0005 36.0002C26.282 36.0002 28.5099 35.2726 30.3183 33.9163C32.1289 32.5584 33.4185 30.6437 33.9444 28.4706C34.2041 27.397 33.5444 26.3161 32.4708 26.0563C31.3972 25.7966 30.3163 26.4563 30.0566 27.5299C29.7577 28.7649 29.0149 29.8939 27.9183 30.7163C26.8197 31.5403 25.4385 32.0002 24.0005 32.0002C22.5625 32.0002 21.1813 31.5403 20.0826 30.7163C18.986 29.8939 18.2432 28.7649 17.9444 27.5299ZM20.3568 21.9677C19.27 22.1649 18.229 21.4438 18.0318 20.357C18.023 20.3086 18.012 20.265 17.9997 20.226C17.9873 20.265 17.9763 20.3086 17.9675 20.357C17.7703 21.4438 16.7293 22.1649 15.6425 21.9677C14.5557 21.7705 13.8346 20.7295 14.0318 19.6427C14.1982 18.7256 14.6199 17.8329 15.306 17.1469C16.0011 16.4518 16.946 15.9998 17.9997 15.9998C19.0533 15.9998 19.9982 16.4518 20.6933 17.1469C21.3794 17.8329 21.8011 18.7255 21.9675 19.6427C22.1647 20.7295 21.4436 21.7705 20.3568 21.9677ZM30.0318 20.357C30.229 21.4438 31.27 22.1649 32.3568 21.9677C33.4436 21.7705 34.1647 20.7295 33.9675 19.6427C33.8011 18.7255 33.3794 17.8329 32.6933 17.1469C31.9982 16.4518 31.0533 15.9998 29.9997 15.9998C28.946 15.9998 28.0011 16.4518 27.306 17.1469C26.6199 17.8329 26.1982 18.7256 26.0318 19.6427C25.8346 20.7295 26.5557 21.7705 27.6425 21.9677C28.7293 22.1649 29.7703 21.4438 29.9675 20.357C29.9763 20.3086 29.9873 20.265 29.9997 20.226C30.012 20.265 30.023 20.3086 30.0318 20.357Z" fill="#FA8F54"/>
</svg>
