<svg width="160" height="160" viewBox="0 0 160 160" fill="none" xmlns="http://www.w3.org/2000/svg">
<path d="M80 140C113.137 140 140 113.137 140 80C140 46.8629 113.137 20 80 20C46.8629 20 20 46.8629 20 80C20 113.137 46.8629 140 80 140Z" fill="url(#paint0_linear)"/>
<path fill-rule="evenodd" clip-rule="evenodd" d="M139.963 82.1209C119.922 80.6445 98.9017 81.1579 76.9028 83.6609C54.9648 86.1569 36.8062 90.5856 22.4269 96.9468C20.8474 91.5725 20 85.8849 20 79.9993C20 75.1477 20.5758 70.4307 21.6629 65.9127C26.3531 62.5935 32.7834 64.5616 37.741 69.2993C45.3999 76.6184 51.4314 80.2145 62.2881 69.2993C73.1448 58.3841 79.6346 60.9084 86.1017 69.2993C92.5687 77.6902 98.6641 75.5619 112.274 73.5232C120.437 72.3005 129.679 74.5736 139.999 80.3427C139.996 80.9375 139.984 81.5303 139.963 82.1209V82.1209Z" fill="url(#paint1_linear)"/>
<path fill-rule="evenodd" clip-rule="evenodd" d="M20.0098 81.108C25.5214 74.4541 32.2506 72.5746 40.1975 75.4695C56.2958 81.3336 57.6978 80.1401 64.513 75.4695C71.3281 70.7988 71.0369 67.7716 79.9997 73.1615C88.9625 78.5513 95.924 81.4905 103.586 78.851C111.249 76.2115 120.572 71.2543 129.46 81.2212C109.085 80.5386 91.4143 81.4932 76.4477 84.085C59.3941 87.0382 35.1694 97.8394 24.5091 102.861C21.7359 96.1375 20.1492 88.7995 20.0098 81.108Z" fill="url(#paint2_linear)"/>
<path fill-rule="evenodd" clip-rule="evenodd" d="M22.4277 96.9513C51.2284 82.6199 90.4096 77.588 139.972 81.8555C138.991 114.134 112.516 140 79.9997 140C52.7496 140 29.7423 121.834 22.4277 96.9513Z" fill="url(#paint3_linear)"/>
<path fill-rule="evenodd" clip-rule="evenodd" d="M22.3848 96.7993C46.9125 83.8511 80.2082 78.5151 122.272 80.7916C115.872 80.7916 91.4309 80.7916 76.4077 88.6482C61.3845 96.5048 64.7808 101.518 75.4544 105.901C86.1281 110.285 79.5857 117.186 75.4544 117.186C72.7003 117.186 67.7094 116.323 60.482 114.598C52.5312 113.171 43.6021 114.357 33.6949 118.156C28.5822 111.959 24.6895 104.717 22.3848 96.7993Z" fill="url(#paint4_linear)"/>
<path fill-rule="evenodd" clip-rule="evenodd" d="M33.1035 117.43C46.3653 111.777 58.7259 111.138 70.1853 115.514C94.1821 124.677 106.329 107.651 112.415 93.5378C117.102 82.6724 132.944 80.9991 139.987 81.2687C139.311 113.82 112.713 140 79.9997 140C61.0197 140 44.098 131.187 33.1035 117.43H33.1035Z" fill="url(#paint5_linear)"/>
<path fill-rule="evenodd" clip-rule="evenodd" d="M69.44 139.074C69.3538 139.058 69.2677 139.043 69.1816 139.027V139.016C69.2681 139.035 69.3542 139.055 69.44 139.074H69.44Z" fill="url(#paint6_linear)"/>
<path fill-rule="evenodd" clip-rule="evenodd" d="M77.2578 139.938C80.0685 139.812 82.1427 139.037 83.4804 137.613C87.0782 133.784 78.2624 124.684 91.9523 123.93C105.642 123.176 122.783 124.864 117.474 113.589C112.168 102.321 118.632 81.3657 139.985 81.3411C139.272 113.859 112.688 140 79.9996 140C79.0807 140 78.1666 139.979 77.2578 139.938Z" fill="url(#paint7_linear)"/>
<path fill-rule="evenodd" clip-rule="evenodd" d="M75.2695 62.2308C76.7242 57.8947 78.8341 53.9688 80.0007 50.8041C82.8497 43.0751 89.4509 41.7871 89.4509 35.1566C89.4509 28.5262 95.1978 27.1762 98.2946 21.3997C101.391 15.6232 104.275 21.976 107.631 27.1762C110.986 32.3765 114.678 31.8197 114.678 41.7871C114.678 51.7544 121.62 51.8621 125.736 60.9155C127.988 65.8673 131.168 71.5992 135.276 78.1113C126.839 74.1531 119.172 72.6905 112.275 73.7237C98.6648 75.7623 92.5694 77.8906 86.1024 69.4997C82.7072 65.0946 79.3058 62.3063 75.2695 62.2308Z" fill="url(#paint8_linear)"/>
<path fill-rule="evenodd" clip-rule="evenodd" d="M107.629 27.1763C110.985 32.3765 114.676 31.8197 114.676 41.7871C114.676 51.7544 121.618 51.8622 125.735 60.9156C127.986 65.8673 131.166 71.5993 135.275 78.1113C126.838 74.1531 119.17 72.6905 112.273 73.7237C98.6632 75.7623 94.9991 65.6412 99.6429 61.6506C104.287 57.66 113.11 51.3295 109.174 47.0793C105.238 42.829 106.085 39.5191 107.629 35.9278C108.279 34.4085 108.603 32.9438 108.603 31.5337C108.603 29.4186 107.629 27.1763 107.629 27.1763Z" fill="url(#paint9_linear)"/>
<path fill-rule="evenodd" clip-rule="evenodd" d="M113.352 73.5832C112.99 73.6233 112.631 73.6702 112.273 73.7237C98.6634 75.7624 92.568 77.8907 86.101 69.4998C79.6339 61.1089 73.1441 58.5845 62.2874 69.4998C51.4307 80.415 45.3992 76.8189 37.7403 69.4998C35.3591 67.2243 32.6382 65.5876 29.9336 64.8689C31.098 62.666 32.2327 60.3512 32.8214 58.0008C34.3287 51.983 34.0226 48.4397 38.8626 45.9779C43.7026 43.5162 45.166 41.2808 45.166 34.2117C45.166 27.1426 53.7841 27.3126 52.759 20.4857C51.7338 13.6587 56.4098 13.8217 60.7408 9.56141C65.0717 5.30115 70.075 17.1268 74.0221 20.4857C77.9692 23.8445 74.7807 26.9354 78.3905 29.5732C82.0004 32.2109 82.0767 32.0787 83.3662 37.8293C84.2259 41.663 86.3971 44.3792 89.8796 45.9779C91.574 46.7064 94.2381 47.0706 97.8717 47.0706C103.322 47.0706 102.312 52.6799 102.312 58.0008C102.312 63.3217 107.645 65.784 111.651 70.7724C112.394 71.6974 112.961 72.6343 113.352 73.5832H113.352Z" fill="url(#paint10_linear)"/>
<path fill-rule="evenodd" clip-rule="evenodd" d="M56.8616 15.8406C53.6938 19.4586 63.8327 24.3747 58.988 32.4334C54.1433 40.4922 71.1066 45.9776 61.8811 53.9553C55.7308 59.2738 55.8662 64.4552 62.2874 69.4994C51.4307 80.4146 45.3992 76.8185 37.7403 69.4994C35.3591 67.2239 32.6382 65.5873 29.9336 64.8685C31.098 62.6656 32.2327 60.3508 32.8214 58.0005C34.3287 51.9827 34.0226 48.4393 38.8626 45.9776C43.7026 43.5159 45.166 41.2804 45.166 34.2113C45.166 27.1422 53.7841 27.3122 52.759 20.4853C51.7339 13.6584 56.4098 13.8213 60.7408 9.56104C60.2665 11.3354 58.9734 13.4285 56.8616 15.8406Z" fill="url(#paint11_linear)"/>
<path fill-rule="evenodd" clip-rule="evenodd" d="M45.6278 80.9485C41.6748 81.7398 39.4828 80.8485 39.052 78.2746C38.4056 74.4137 44.0558 72.3558 41.2307 68.3405C38.4056 64.3251 43.5011 60.979 42.9376 57.1676C42.3741 53.3563 44.143 51.6262 47.9038 59.9546C51.6645 68.2831 45.9264 67.4114 49.4558 73.4145C51.8087 77.4166 50.5327 79.9279 45.6278 80.9485Z" fill="url(#paint12_linear)"/>
<path fill-rule="evenodd" clip-rule="evenodd" d="M44.8743 63.5436C46.2667 65.9491 45.0821 67.8775 44.6489 69.3157C44.2157 70.7538 44.5217 73.1002 44.8743 74.2213C45.227 75.3424 44.795 77.9101 44.6489 78.8628C44.5028 79.8155 44.9622 81.0721 44.6489 81.1152C41.3115 81.5746 39.4459 80.6277 39.052 78.2747C38.4056 74.4138 44.0558 72.3559 41.2307 68.3406C38.4056 64.3252 43.5011 60.9791 42.9376 57.1677C43.3006 59.8147 43.9461 61.94 44.8743 63.5436Z" fill="url(#paint13_linear)"/>
<path fill-rule="evenodd" clip-rule="evenodd" d="M42.9571 88.3293C44.2524 82.782 44.4382 79.4325 43.5143 78.281C42.1286 76.5536 41.9343 74.8461 42.9571 76.3235C43.9798 77.8008 45.0492 78.2382 44.366 74.0882C43.6828 69.9383 45.8109 65.5073 45.4477 67.1783C45.0845 68.8494 44.2456 71.6095 45.1174 74.0882C45.9891 76.567 43.8219 78.8561 46.773 77.7109C49.7241 76.5657 47.8449 77.7249 46.4696 78.8379C45.0943 79.9509 45.068 79.9606 45.6292 82.6905C46.0033 84.5105 46.1233 86.0864 45.9891 87.418L42.9571 88.3293Z" fill="url(#paint14_linear)"/>
<path fill-rule="evenodd" clip-rule="evenodd" d="M69.6285 78.0346C67.1067 78.5406 65.7084 77.9706 65.4335 76.3245C65.0212 73.8553 68.6256 72.5392 66.8234 69.9713C65.0212 67.4033 68.2718 65.2634 67.9123 62.8259C67.5528 60.3884 68.6813 59.2819 71.0804 64.6083C73.4795 69.9346 69.8189 69.3771 72.0705 73.2163C73.5715 75.7758 72.7575 77.3818 69.6285 78.0346Z" fill="url(#paint15_linear)"/>
<path fill-rule="evenodd" clip-rule="evenodd" d="M69.1478 66.9035C70.036 68.4419 69.2803 69.6752 69.004 70.595C68.7276 71.5147 68.9228 73.0153 69.1478 73.7323C69.3728 74.4492 69.0972 76.0914 69.004 76.7007C68.9108 77.3099 69.2039 78.1136 69.004 78.1412C66.875 78.4349 65.6848 77.8294 65.4335 76.3246C65.0212 73.8554 68.6256 72.5393 66.8234 69.9713C65.0212 67.4034 68.2718 65.2634 67.9123 62.8259C68.1438 64.5188 68.5557 65.878 69.1478 66.9035Z" fill="url(#paint16_linear)"/>
<path fill-rule="evenodd" clip-rule="evenodd" d="M67.9242 82.7547C68.7505 79.2069 68.869 77.0649 68.2797 76.3284C67.3956 75.2237 67.2717 74.1317 67.9242 75.0765C68.5766 76.0213 69.2588 76.301 68.823 73.647C68.3871 70.993 69.7447 68.1592 69.513 69.2279C69.2813 70.2966 68.7462 72.0618 69.3023 73.647C69.8584 75.2322 68.4759 76.6962 70.3584 75.9638C72.241 75.2314 71.0422 75.9728 70.1649 76.6846C69.2876 77.3964 69.2707 77.4026 69.6288 79.1485C69.8674 80.3124 69.9494 81.4191 69.8746 82.4685L67.9242 82.7547Z" fill="url(#paint17_linear)"/>
<path d="M64.8339 83.1099L65.0116 83.2017C60.4017 92.1221 57.3413 97.6817 55.827 99.886L55.6621 99.7727C57.1699 97.5781 60.2283 92.022 64.8339 83.1099Z" fill="#123874"/>
<path fill-rule="evenodd" clip-rule="evenodd" d="M86.0751 96.872L88.4229 97.5619C86.4161 98.4806 84.9941 99.4414 84.157 100.444C79.8398 101.08 76.1484 101.954 73.0828 103.066C65.6556 102.359 60.5284 100.903 57.7012 98.6968L64.7033 89.165L86.0751 96.872Z" fill="url(#paint18_linear)"/>
<path fill-rule="evenodd" clip-rule="evenodd" d="M83.7125 99.4543C85.5151 98.1859 87.0933 97.5517 88.4472 97.5517C85.014 93.5634 82.0028 89.1796 79.4135 84.4001L71.1602 88.1702L77.715 98.6373L80.6517 97.9037H82.7278L83.7125 99.4543Z" fill="url(#paint19_linear)"/>
<path fill-rule="evenodd" clip-rule="evenodd" d="M57.6992 98.5904C61.3777 100.56 66.4684 101.746 72.9714 102.149C76.159 100.807 78.977 100.136 81.4253 100.136C80.2123 96.6967 79.5341 91.4247 79.3907 84.3201C75.9033 84.4481 73.0778 84.4481 70.9142 84.3201C68.7507 84.1921 66.7418 83.7934 64.8878 83.1238C63.6768 86.6951 62.4708 89.603 61.2698 91.8477C60.0688 94.0924 58.8786 96.3399 57.6992 98.5904Z" fill="url(#paint20_linear)"/>
<path fill-rule="evenodd" clip-rule="evenodd" d="M57.6992 98.5904C61.3777 100.56 66.4684 101.746 72.9714 102.149C75.5695 96.8112 77.7093 90.8683 79.3907 84.3201C75.9033 84.4481 73.0778 84.4481 70.9142 84.3201C68.7507 84.1921 66.7418 83.7934 64.8878 83.1238C63.6768 86.6951 62.4708 89.603 61.2698 91.8477C60.0688 94.0924 58.8786 96.3399 57.6992 98.5904Z" fill="url(#paint21_linear)"/>
<path fill-rule="evenodd" clip-rule="evenodd" d="M83.713 99.4543C85.5156 98.1859 87.0939 97.5517 88.4477 97.5517C85.0145 93.5634 82.0033 89.1796 79.4141 84.4001C79.8987 88.0074 80.3426 90.6325 80.7459 92.2755C81.0791 93.6333 81.74 95.5094 82.7284 97.9037L83.713 99.4543Z" fill="url(#paint22_linear)"/>
<path d="M73.8874 104.38L73.707 104.294C74.9929 101.61 76.8682 95.013 79.3287 84.512L79.3811 84.2883L79.5091 84.4791C83.5839 90.5528 87.4379 95.0229 91.0693 97.8893L90.9453 98.0463C87.3335 95.1954 83.5093 90.7737 79.4711 84.781C77.0327 95.1675 75.1728 101.698 73.8874 104.38Z" fill="#123874"/>
<path fill-rule="evenodd" clip-rule="evenodd" d="M91.5188 97.3363L90.9489 98.0462L90.9082 97.9371L91.234 97.2019L91.5188 97.3363Z" fill="#123874"/>
<path fill-rule="evenodd" clip-rule="evenodd" d="M73.127 104.101L73.3183 103.822L73.9266 104.27L73.8859 104.379L73.127 104.101Z" fill="#123874"/>
<path fill-rule="evenodd" clip-rule="evenodd" d="M55.0879 99.5282L55.2706 99.252L55.8617 99.7812L55.828 99.8834L55.0879 99.5282Z" fill="#123874"/>
<defs>
<linearGradient id="paint0_linear" x1="76.837" y1="69.5152" x2="96.1639" y2="21.8848" gradientUnits="userSpaceOnUse">
<stop stop-color="#D5EDF3"/>
<stop offset="1" stop-color="#A2DBD8"/>
</linearGradient>
<linearGradient id="paint1_linear" x1="99.4038" y1="78.3858" x2="68.0315" y2="103.703" gradientUnits="userSpaceOnUse">
<stop stop-color="#2FAC6D"/>
<stop offset="1" stop-color="#007846"/>
</linearGradient>
<linearGradient id="paint2_linear" x1="127.55" y1="85.1344" x2="53.367" y2="111.193" gradientUnits="userSpaceOnUse">
<stop stop-color="#2FAC6D"/>
<stop offset="1" stop-color="#007846"/>
</linearGradient>
<linearGradient id="paint3_linear" x1="136.193" y1="102.527" x2="71.1382" y2="136.161" gradientUnits="userSpaceOnUse">
<stop stop-color="#68C179"/>
<stop offset="1" stop-color="#25A062"/>
</linearGradient>
<linearGradient id="paint4_linear" x1="113.926" y1="96.7311" x2="76.2456" y2="114.58" gradientUnits="userSpaceOnUse">
<stop stop-color="#68C179"/>
<stop offset="1" stop-color="#25A062"/>
</linearGradient>
<linearGradient id="paint5_linear" x1="89.7281" y1="100.402" x2="85.4263" y2="122.409" gradientUnits="userSpaceOnUse">
<stop stop-color="#77EBFF"/>
<stop offset="1" stop-color="#4D86DE"/>
</linearGradient>
<linearGradient id="paint6_linear" x1="69.4044" y1="139.031" x2="69.3833" y2="139.119" gradientUnits="userSpaceOnUse">
<stop stop-color="#91F6FF"/>
<stop offset="1" stop-color="#4D86DE"/>
</linearGradient>
<linearGradient id="paint7_linear" x1="131.334" y1="90.5934" x2="85.4066" y2="157.544" gradientUnits="userSpaceOnUse">
<stop stop-color="#91F6FF"/>
<stop offset="1" stop-color="#4D86DE"/>
</linearGradient>
<linearGradient id="paint8_linear" x1="107.029" y1="29.0876" x2="90.6611" y2="77.3028" gradientUnits="userSpaceOnUse">
<stop stop-color="#30A0DE"/>
<stop offset="1" stop-color="#194383"/>
</linearGradient>
<linearGradient id="paint9_linear" x1="109.169" y1="97.9215" x2="138.957" y2="-15.4179" gradientUnits="userSpaceOnUse">
<stop stop-color="#30A0DE"/>
<stop offset="1" stop-color="#194383"/>
</linearGradient>
<linearGradient id="paint10_linear" x1="74.084" y1="27.2272" x2="62.3346" y2="74.0874" gradientUnits="userSpaceOnUse">
<stop stop-color="#30A0DE"/>
<stop offset="1" stop-color="#194383"/>
</linearGradient>
<linearGradient id="paint11_linear" x1="49.1423" y1="28.1785" x2="36.5892" y2="86.1437" gradientUnits="userSpaceOnUse">
<stop stop-color="#30A0DE"/>
<stop offset="1" stop-color="#194383"/>
</linearGradient>
<linearGradient id="paint12_linear" x1="44.8" y1="54" x2="44.8" y2="74.7031" gradientUnits="userSpaceOnUse">
<stop stop-color="#68C179"/>
<stop offset="1" stop-color="#1FA063"/>
</linearGradient>
<linearGradient id="paint13_linear" x1="42.3244" y1="58.8237" x2="40.6183" y2="81.1068" gradientUnits="userSpaceOnUse">
<stop stop-color="#68C179"/>
<stop offset="1" stop-color="#1FA063"/>
</linearGradient>
<linearGradient id="paint14_linear" x1="45.2797" y1="91.5292" x2="45.8474" y2="75.2965" gradientUnits="userSpaceOnUse">
<stop stop-color="#006239"/>
<stop offset="1" stop-color="#007846"/>
</linearGradient>
<linearGradient id="paint15_linear" x1="69.1004" y1="60.8" x2="69.1004" y2="74.0404" gradientUnits="userSpaceOnUse">
<stop stop-color="#68C179"/>
<stop offset="1" stop-color="#1FA063"/>
</linearGradient>
<linearGradient id="paint16_linear" x1="67.521" y1="63.885" x2="66.4325" y2="78.1361" gradientUnits="userSpaceOnUse">
<stop stop-color="#68C179"/>
<stop offset="1" stop-color="#1FA063"/>
</linearGradient>
<linearGradient id="paint17_linear" x1="69.3592" y1="91.367" x2="70.3173" y2="75.9304" gradientUnits="userSpaceOnUse">
<stop stop-color="#006239"/>
<stop offset="1" stop-color="#008D52"/>
</linearGradient>
<linearGradient id="paint18_linear" x1="120.746" y1="95.3122" x2="68.6516" y2="104.919" gradientUnits="userSpaceOnUse">
<stop stop-color="#68C179"/>
<stop offset="1" stop-color="#139553"/>
</linearGradient>
<linearGradient id="paint19_linear" x1="79.8037" y1="86.219" x2="80.6644" y2="93.1624" gradientUnits="userSpaceOnUse">
<stop stop-color="#F9BB49"/>
<stop offset="1" stop-color="#CD6709"/>
</linearGradient>
<linearGradient id="paint20_linear" x1="71.4311" y1="84.1673" x2="75.7578" y2="102.379" gradientUnits="userSpaceOnUse">
<stop stop-color="#F9BB49"/>
<stop offset="1" stop-color="#F08523"/>
</linearGradient>
<linearGradient id="paint21_linear" x1="68.545" y1="85.3187" x2="67.28" y2="95.7119" gradientUnits="userSpaceOnUse">
<stop stop-color="#F9BB49"/>
<stop offset="1" stop-color="#F08523"/>
</linearGradient>
<linearGradient id="paint22_linear" x1="83.9309" y1="84.4001" x2="83.2508" y2="95.0163" gradientUnits="userSpaceOnUse">
<stop stop-color="#F9BB49"/>
<stop offset="1" stop-color="#F08523"/>
</linearGradient>
</defs>
</svg>
