<svg width="48" height="48" viewBox="0 0 48 48" fill="none" xmlns="http://www.w3.org/2000/svg">
<path fill-rule="evenodd" clip-rule="evenodd" d="M23.7352 16L21.3908 12.0926C20.7959 11.1011 19.8972 10.5341 18.9987 10.4196C17.2681 10.199 15.1104 10 13 10C11.5334 10 10.0372 10.0962 8.66931 10.2309C7.41008 10.3548 6.48058 11.2902 6.38022 12.5985C6.17935 15.2172 6 18.9653 6 24C6 27.5452 6.12912 30.7031 6.29312 33.2832C6.44621 35.6916 8.27255 37.5095 10.6996 37.6494C13.993 37.8393 18.4264 38 24 38C29.5736 38 34.007 37.8393 37.3004 37.6494C39.7275 37.5095 41.5538 35.6916 41.7069 33.2832C41.8709 30.7031 42 27.5452 42 24C42 22.0677 41.888 20.2334 41.7398 18.6558C41.6175 17.3538 40.6462 16.3825 39.3442 16.2602C37.7666 16.112 35.9323 16 34 16H23.7352ZM26 12L24.8208 10.0346C23.6611 8.10188 21.7404 6.73671 19.5045 6.45169C17.6775 6.21879 15.3387 6 13 6C11.3678 6 9.73569 6.10656 8.27745 6.2501C5.06338 6.56649 2.63895 9.07241 2.39194 12.2926C2.18271 15.0202 2 18.8706 2 24C2 27.6411 2.13257 30.8844 2.30118 33.537C2.58312 37.9725 6.03226 41.387 10.4693 41.6428C13.8393 41.8371 18.3495 42 24 42C29.6505 42 34.1607 41.8371 37.5307 41.6428C41.9677 41.387 45.4169 37.9725 45.6988 33.537C45.8674 30.8844 46 27.6411 46 24C46 21.9177 45.8796 19.9559 45.7223 18.2817C45.4202 15.0663 42.9337 12.5798 39.7183 12.2777C38.0441 12.1204 36.0823 12 34 12H26Z" fill="#3B71FE"/>
</svg>
