<svg width="48" height="48" viewBox="0 0 48 48" fill="none" xmlns="http://www.w3.org/2000/svg">
<path fill-rule="evenodd" clip-rule="evenodd" d="M28.1724 36.1732L36.1724 28.1732C40.6854 23.6602 40.6854 16.3431 36.1724 11.8301C31.6593 7.31706 24.3423 7.31705 19.8292 11.8301L11.8292 19.8301C7.3162 24.3431 7.3162 31.6602 11.8292 36.1732C16.3423 40.6863 23.6593 40.6863 28.1724 36.1732ZM31.0008 39.0017L39.0008 31.0017C45.0759 24.9265 45.0759 15.0768 39.0008 9.00166C32.9257 2.92653 23.0759 2.92653 17.0008 9.00166L9.0008 17.0017C2.92567 23.0768 2.92568 32.9265 9.00081 39.0017C15.0759 45.0768 24.9257 45.0768 31.0008 39.0017Z" fill="#92A5EF"/>
<path fill-rule="evenodd" clip-rule="evenodd" d="M33.4142 14.5858C34.1953 15.3668 34.1953 16.6332 33.4142 17.4142L29.4142 21.4142C28.6332 22.1953 27.3668 22.1953 26.5858 21.4142C25.8047 20.6332 25.8047 19.3668 26.5858 18.5858L30.5858 14.5858C31.3668 13.8047 32.6332 13.8047 33.4142 14.5858Z" fill="#92A5EF"/>
</svg>
