<svg width="124" height="31" viewBox="0 0 124 31" fill="none" xmlns="http://www.w3.org/2000/svg">
<path d="M46.211 6.74902H39.372C39.1456 6.74888 38.9266 6.8296 38.7544 6.97664C38.5823 7.12369 38.4683 7.32738 38.433 7.55102L35.667 25.088C35.6543 25.1694 35.6594 25.2526 35.6819 25.3318C35.7044 25.411 35.7438 25.4844 35.7974 25.547C35.851 25.6095 35.9175 25.6597 35.9924 25.694C36.0672 25.7284 36.1486 25.7461 36.231 25.746H39.496C39.7226 25.7461 39.9417 25.6653 40.1139 25.518C40.2861 25.3708 40.4 25.1668 40.435 24.943L41.181 20.213C41.216 19.9894 41.3298 19.7856 41.5018 19.6384C41.6737 19.4911 41.8926 19.4102 42.119 19.41H44.284C48.789 19.41 51.389 17.23 52.068 12.91C52.374 11.02 52.081 9.53502 51.196 8.49502C50.224 7.35302 48.5 6.74902 46.211 6.74902V6.74902ZM47 13.154C46.626 15.608 44.751 15.608 42.938 15.608H41.906L42.63 11.025C42.6512 10.8909 42.7196 10.7688 42.8228 10.6807C42.926 10.5925 43.0573 10.544 43.193 10.544H43.666C44.901 10.544 46.066 10.544 46.668 11.248C47.027 11.668 47.137 12.292 47 13.154V13.154Z" fill="#253B80"/>
<path d="M66.654 13.075H63.379C63.2433 13.075 63.112 13.1234 63.0088 13.2116C62.9055 13.2998 62.8372 13.4219 62.816 13.556L62.671 14.472L62.442 14.14C61.733 13.111 60.152 12.767 58.574 12.767C54.955 12.767 51.864 15.508 51.262 19.353C50.949 21.271 51.394 23.105 52.482 24.384C53.48 25.56 54.908 26.05 56.607 26.05C59.523 26.05 61.14 24.175 61.14 24.175L60.994 25.085C60.981 25.1663 60.9858 25.2495 61.008 25.3289C61.0303 25.4082 61.0695 25.4818 61.1229 25.5445C61.1763 25.6072 61.2427 25.6576 61.3174 25.6923C61.3922 25.7269 61.4736 25.7448 61.556 25.745H64.506C64.7326 25.7451 64.9517 25.6642 65.1239 25.517C65.2961 25.3697 65.4099 25.1658 65.445 24.942L67.215 13.733C67.228 13.6518 67.2233 13.5687 67.2011 13.4896C67.1789 13.4104 67.1397 13.337 67.0864 13.2745C67.0331 13.2119 66.9668 13.1617 66.8921 13.1272C66.8175 13.0928 66.7362 13.0749 66.654 13.075V13.075ZM62.089 19.449C61.773 21.32 60.288 22.576 58.394 22.576C57.443 22.576 56.683 22.271 56.195 21.693C55.711 21.119 55.527 20.302 55.681 19.392C55.976 17.537 57.486 16.24 59.351 16.24C60.281 16.24 61.037 16.549 61.535 17.132C62.034 17.721 62.232 18.543 62.089 19.449V19.449Z" fill="#253B80"/>
<path d="M84.096 13.075H80.805C80.6498 13.0752 80.497 13.1133 80.3599 13.186C80.2227 13.2586 80.1054 13.3637 80.018 13.492L75.479 20.178L73.555 13.753C73.496 13.557 73.3754 13.3853 73.2111 13.2631C73.0469 13.141 72.8477 13.0751 72.643 13.075H69.409C69.3182 13.0747 69.2287 13.0962 69.1479 13.1375C69.0671 13.1788 68.9973 13.2389 68.9444 13.3127C68.8915 13.3864 68.8569 13.4717 68.8436 13.5616C68.8303 13.6514 68.8387 13.743 68.868 13.829L72.493 24.467L69.085 29.278C69.0244 29.3633 68.9885 29.4636 68.9812 29.5679C68.9738 29.6723 68.9953 29.7767 69.0434 29.8696C69.0914 29.9625 69.1641 30.0405 69.2534 30.0949C69.3428 30.1493 69.4454 30.178 69.55 30.178H72.837C72.9905 30.1782 73.1417 30.1412 73.2777 30.0701C73.4138 29.999 73.5305 29.896 73.618 29.77L84.564 13.97C84.6233 13.8845 84.6581 13.7844 84.6646 13.6805C84.6711 13.5767 84.6491 13.473 84.6009 13.3808C84.5526 13.2886 84.4801 13.2114 84.3911 13.1575C84.3021 13.1035 84.2001 13.075 84.096 13.075V13.075Z" fill="#253B80"/>
<path d="M94.992 6.74902H88.152C87.9258 6.74912 87.707 6.82995 87.535 6.97697C87.3631 7.12399 87.2492 7.32755 87.214 7.55102L84.448 25.088C84.4351 25.1693 84.44 25.2523 84.4624 25.3315C84.4847 25.4106 84.5239 25.484 84.5773 25.5466C84.6307 25.6091 84.6971 25.6593 84.7718 25.6938C84.8465 25.7282 84.9278 25.746 85.01 25.746H88.52C88.6783 25.7458 88.8314 25.6891 88.9517 25.586C89.0719 25.483 89.1515 25.3405 89.176 25.184L89.961 20.213C89.996 19.9894 90.1098 19.7856 90.2818 19.6383C90.4537 19.4911 90.6726 19.4102 90.899 19.41H93.063C97.569 19.41 100.168 17.23 100.848 12.91C101.155 11.02 100.86 9.53502 99.975 8.49502C99.004 7.35302 97.281 6.74902 94.992 6.74902V6.74902ZM95.781 13.154C95.408 15.608 93.533 15.608 91.719 15.608H90.688L91.413 11.025C91.4338 10.8909 91.5019 10.7687 91.605 10.6805C91.708 10.5923 91.8393 10.5439 91.975 10.544H92.448C93.682 10.544 94.848 10.544 95.45 11.248C95.809 11.668 95.918 12.292 95.781 13.154V13.154Z" fill="#179BD7"/>
<path d="M115.434 13.075H112.161C112.025 13.0746 111.894 13.1229 111.791 13.2112C111.688 13.2995 111.62 13.4218 111.599 13.556L111.454 14.472L111.224 14.14C110.515 13.111 108.935 12.767 107.357 12.767C103.738 12.767 100.648 15.508 100.046 19.353C99.734 21.271 100.177 23.105 101.265 24.384C102.265 25.56 103.691 26.05 105.39 26.05C108.306 26.05 109.923 24.175 109.923 24.175L109.777 25.085C109.764 25.1665 109.769 25.2499 109.791 25.3294C109.814 25.4088 109.853 25.4825 109.907 25.5453C109.96 25.608 110.027 25.6584 110.102 25.6929C110.177 25.7274 110.258 25.7451 110.341 25.745H113.29C113.516 25.7448 113.735 25.6639 113.907 25.5166C114.079 25.3694 114.193 25.1656 114.228 24.942L115.999 13.733C116.012 13.6515 116.006 13.5683 115.984 13.4891C115.961 13.4099 115.922 13.3365 115.868 13.274C115.814 13.2115 115.748 13.1613 115.673 13.127C115.598 13.0926 115.516 13.0749 115.434 13.075V13.075ZM110.869 19.449C110.555 21.32 109.068 22.576 107.174 22.576C106.225 22.576 105.463 22.271 104.975 21.693C104.491 21.119 104.309 20.302 104.461 19.392C104.758 17.537 106.266 16.24 108.131 16.24C109.061 16.24 109.817 16.549 110.315 17.132C110.816 17.721 111.014 18.543 110.869 19.449V19.449Z" fill="#179BD7"/>
<path d="M119.295 7.23005L116.488 25.088C116.475 25.1693 116.48 25.2523 116.502 25.3315C116.525 25.4107 116.564 25.484 116.617 25.5466C116.671 25.6091 116.737 25.6593 116.812 25.6938C116.886 25.7282 116.968 25.746 117.05 25.746H119.872C120.341 25.746 120.739 25.406 120.811 24.943L123.579 7.40705C123.592 7.32576 123.587 7.24266 123.565 7.16345C123.542 7.08423 123.503 7.0108 123.45 6.94818C123.396 6.88556 123.33 6.83525 123.255 6.8007C123.181 6.76616 123.099 6.74819 123.017 6.74805H119.857C119.721 6.74853 119.59 6.7973 119.487 6.88562C119.384 6.97394 119.316 7.09604 119.295 7.23005Z" fill="#179BD7"/>
<path d="M7.266 29.1541L7.789 25.8321L6.624 25.8051H1.061L4.927 1.29205C4.93851 1.21715 4.97656 1.14889 5.03419 1.09969C5.09183 1.0505 5.16523 1.02365 5.241 1.02405H14.621C17.735 1.02405 19.884 1.67205 21.006 2.95105C21.532 3.55105 21.867 4.17805 22.029 4.86805C22.199 5.59205 22.202 6.45705 22.036 7.51205L22.024 7.58905V8.26505L22.55 8.56305C22.9516 8.76649 23.3125 9.04169 23.615 9.37505C24.065 9.88805 24.356 10.5401 24.479 11.3131C24.606 12.1081 24.564 13.0541 24.356 14.1251C24.116 15.3571 23.728 16.4301 23.204 17.3081C22.7417 18.0946 22.12 18.7758 21.379 19.3081C20.683 19.8021 19.856 20.1771 18.921 20.4171C18.015 20.6531 16.982 20.7721 15.849 20.7721H15.119C14.597 20.7721 14.09 20.9601 13.692 21.2971C13.2946 21.6376 13.0309 22.1082 12.948 22.6251L12.893 22.9241L11.969 28.7791L11.927 28.9941C11.916 29.0621 11.897 29.0961 11.869 29.1191C11.8419 29.1412 11.808 29.1536 11.773 29.1541H7.266Z" fill="#253B80"/>
<path d="M23.048 7.66699C23.02 7.84599 22.988 8.02899 22.952 8.21699C21.715 14.568 17.483 16.762 12.078 16.762H9.326C8.665 16.762 8.108 17.242 8.005 17.894L6.596 26.83L6.197 29.363C6.18111 29.4635 6.18718 29.5662 6.21479 29.6641C6.2424 29.762 6.2909 29.8528 6.35696 29.9301C6.42301 30.0075 6.50504 30.0696 6.59741 30.1122C6.68977 30.1548 6.79028 30.1769 6.892 30.177H11.773C12.351 30.177 12.842 29.757 12.933 29.187L12.981 28.939L13.9 23.107L13.959 22.787C14.049 22.215 14.541 21.795 15.119 21.795H15.849C20.578 21.795 24.28 19.875 25.362 14.319C25.814 11.998 25.58 10.06 24.384 8.69699C24.0049 8.27535 23.5522 7.92632 23.048 7.66699V7.66699Z" fill="#179BD7"/>
<path d="M21.754 7.15102C21.359 7.03676 20.9572 6.94758 20.551 6.88402C19.7483 6.76066 18.9371 6.70148 18.125 6.70702H10.773C10.4932 6.70681 10.2226 6.80669 10.01 6.98863C9.79744 7.17057 9.65698 7.42255 9.61401 7.69902L8.05 17.605L8.005 17.894C8.05373 17.5787 8.21371 17.2912 8.45601 17.0835C8.6983 16.8759 9.00691 16.7619 9.326 16.762H12.078C17.483 16.762 21.715 14.567 22.952 8.21702C22.989 8.02902 23.02 7.84602 23.048 7.66702C22.7216 7.49585 22.3814 7.35235 22.031 7.23802C21.9391 7.20754 21.8468 7.17854 21.754 7.15102V7.15102Z" fill="#222D65"/>
<path d="M9.614 7.699C9.65661 7.42245 9.797 7.17035 10.0097 6.9885C10.2223 6.80666 10.4932 6.70713 10.773 6.708H18.125C18.996 6.708 19.809 6.765 20.551 6.885C21.0531 6.96391 21.5483 7.08194 22.032 7.238C22.397 7.359 22.736 7.502 23.049 7.667C23.417 5.32 23.046 3.722 21.777 2.275C20.378 0.682 17.853 0 14.622 0H5.242C4.582 0 4.019 0.48 3.917 1.133L0.0100013 25.898C-0.00819689 26.013 -0.00127311 26.1305 0.0302963 26.2426C0.0618658 26.3546 0.117332 26.4585 0.192879 26.5471C0.268425 26.6356 0.362261 26.7068 0.467929 26.7556C0.573598 26.8045 0.688592 26.8298 0.805001 26.83H6.596L8.05 17.605L9.614 7.699V7.699Z" fill="#253B80"/>
</svg>
