<svg width="24" height="24" viewBox="0 0 24 24" fill="none" xmlns="http://www.w3.org/2000/svg">
<path fill-rule="evenodd" clip-rule="evenodd" d="M9.52275 8.93361C9.42172 9.17558 9.19391 9.3408 8.93252 9.36167L4.18325 9.74094C3.56183 9.79057 3.31039 10.5666 3.78461 10.9712L7.39904 14.0554C7.59925 14.2262 7.68672 14.4949 7.62542 14.7509L6.52045 19.3652C6.37552 19.9704 7.03337 20.4497 7.56505 20.1262L11.6365 17.649C11.86 17.5131 12.1406 17.5131 12.3642 17.649L16.4356 20.1262C16.9672 20.4497 17.6251 19.9704 17.4802 19.3652L16.3752 14.7509C16.3139 14.4949 16.4014 14.2262 16.6016 14.0554L20.216 10.9712C20.6902 10.5666 20.4388 9.79057 19.8174 9.74094L15.0681 9.36167C14.8067 9.3408 14.5789 9.17558 14.4779 8.93361L12.6463 4.54699C12.4067 3.97327 11.5939 3.97327 11.3544 4.54699L9.52275 8.93361ZM16.0179 7.43115L14.4918 3.77638C13.5679 1.56346 10.4328 1.56348 9.50877 3.77638L7.98275 7.43115L4.02404 7.74729C1.62712 7.9387 0.65727 10.9318 2.48641 12.4926L5.49492 15.0597L4.57544 18.8994C4.0164 21.234 6.55383 23.0826 8.60461 21.8348L12.0003 19.7688L15.396 21.8348C17.4468 23.0826 19.9842 21.2339 19.4252 18.8994L18.5057 15.0597L21.5142 12.4926C23.3434 10.9318 22.3735 7.9387 19.9766 7.74729L16.0179 7.43115Z" fill="#777E91"/>
</svg>
