<svg width="64" height="16" viewBox="0 0 64 16" fill="none" xmlns="http://www.w3.org/2000/svg">
<g clip-path="url(#clip0)">
<path d="M29.8963 13.0736H27.2112L28.8906 2.68909H31.5756L29.8963 13.0736Z" fill="#00579F"/>
<path d="M39.629 2.94211C39.0994 2.73199 38.2594 2.5 37.2207 2.5C34.5691 2.5 32.7018 3.91399 32.6904 5.93556C32.6684 7.42707 34.0273 8.25549 35.0436 8.75281C36.0825 9.26099 36.4356 9.59269 36.4356 10.0457C36.425 10.7413 35.5962 11.062 34.8231 11.062C33.7511 11.062 33.1767 10.8967 32.3038 10.5096L31.9502 10.3437L31.5745 12.6748C32.2042 12.9617 33.3645 13.2163 34.5691 13.2275C37.3865 13.2275 39.2207 11.8354 39.2424 9.68108C39.2532 8.49894 38.5356 7.59314 36.9886 6.85296C36.0494 6.37781 35.4743 6.05743 35.4743 5.57127C35.4853 5.12931 35.9608 4.67663 37.0209 4.67663C37.8938 4.65446 38.5351 4.86428 39.021 5.07425L39.2639 5.18452L39.629 2.94211V2.94211Z" fill="#00579F"/>
<path d="M43.1982 9.39473C43.4194 8.79815 44.2703 6.48923 44.2703 6.48923C44.2591 6.5114 44.4909 5.88164 44.6235 5.49503L44.8112 6.38982C44.8112 6.38982 45.3197 8.87553 45.4301 9.39473H43.1982ZM46.5127 2.68909H44.4357C43.7953 2.68909 43.3087 2.87674 43.0323 3.55069L39.0439 13.0734H41.8613C41.8613 13.0734 42.3252 11.7917 42.4249 11.5157H45.8723C45.9494 11.8803 46.1927 13.0734 46.1927 13.0734H48.6789L46.5127 2.68909V2.68909Z" fill="#00579F"/>
<path d="M24.9677 2.68909L22.3381 9.77032L22.0507 8.33416C21.5646 6.67703 20.0399 4.87658 18.3384 3.98135L20.747 13.0626H23.5864L27.8069 2.68909H24.9677V2.68909Z" fill="#00579F"/>
<path d="M19.8965 2.68909H15.5764L15.5322 2.89891C18.9022 3.76066 21.134 5.83788 22.0509 8.3346L21.1118 3.562C20.9572 2.89876 20.4821 2.71096 19.8965 2.68909Z" fill="#FAA61A"/>
</g>
<defs>
<clipPath id="clip0">
<rect width="33.2121" height="10.7275" fill="white" transform="translate(15.5 2.5)"/>
</clipPath>
</defs>
</svg>
