<svg width="106" height="36" viewBox="0 0 106 36" fill="none" xmlns="http://www.w3.org/2000/svg">
<g clip-path="url(#clip0)">
<path d="M14.9027 1.19222C16.819 0.0858499 19.1799 0.0858494 21.0962 1.19222L31.0066 6.91395C32.9229 8.02032 34.1033 10.065 34.1033 12.2777V23.7212C34.1033 25.9339 32.9229 27.9786 31.0066 29.085L21.0962 34.8067C19.1799 35.9131 16.819 35.9131 14.9027 34.8067L4.99235 29.085C3.07606 27.9786 1.89558 25.9339 1.89558 23.7212V12.2777C1.89558 10.065 3.07606 8.02032 4.99235 6.91395L14.9027 1.19222Z" fill="url(#paint0_linear)"/>
<mask id="mask0" mask-type="alpha" maskUnits="userSpaceOnUse" x="1" y="0" width="34" height="36">
<path d="M14.9027 1.19222C16.819 0.0858499 19.1799 0.0858494 21.0962 1.19222L31.0066 6.91395C32.9229 8.02032 34.1033 10.065 34.1033 12.2777V23.7212C34.1033 25.9339 32.9229 27.9786 31.0066 29.085L21.0962 34.8067C19.1799 35.9131 16.819 35.9131 14.9027 34.8067L4.99235 29.085C3.07606 27.9786 1.89558 25.9339 1.89558 23.7212V12.2777C1.89558 10.065 3.07606 8.02032 4.99235 6.91395L14.9027 1.19222Z" fill="#83E1E1"/>
</mask>
<g mask="url(#mask0)">
<path d="M7.06987 14.0317L-3.55766 20.6566L-12.7647 26.8438C-13.1071 27.0739 -13.3125 27.4594 -13.3125 27.872V57.2179C-13.3125 57.902 -12.7579 58.4566 -12.0738 58.4566H49.2036C49.8877 58.4566 50.4423 57.902 50.4423 57.2179V31.0059C50.4423 30.5815 50.2251 30.1867 49.8667 29.9596L18.8472 10.3006C18.3574 9.99022 17.7178 10.0612 17.3079 10.4714L11.9644 15.819C11.4805 16.3032 10.6957 16.3032 10.2119 15.819L8.60139 14.2073C8.19394 13.7995 7.55906 13.7267 7.06987 14.0317Z" fill="url(#paint1_linear)"/>
<path d="M7.45467 16.875L1.125 21.975H5.97115C6.44588 21.975 8.21291 24.575 9.03709 25.875L10.125 19.775L7.45467 16.875Z" fill="url(#paint2_linear)"/>
<path d="M14.6468 19.125L18 13.5L31.5 21.375L28.408 22.7465L20.8125 22.5L13.5 29.25L16.875 21.375L14.6468 19.125Z" fill="url(#paint3_linear)"/>
</g>
</g>
<path d="M53.5269 9.95C52.4109 9.878 51.6279 10.04 51.1779 10.436C50.7279 10.832 50.5029 11.525 50.5029 12.515V12.542H53.5269V15.755H50.5029V27.5H46.6959V15.755H44.7789V12.542H46.6959V12.191C46.6959 10.409 47.1999 9.041 48.2079 8.087C49.2339 7.115 50.7459 6.629 52.7439 6.629C53.0859 6.629 53.3469 6.638 53.5269 6.656V9.95ZM59.6126 7.52V27.5H55.8056V7.52H59.6126ZM77.1236 19.454C77.1236 19.832 77.0786 20.264 76.9886 20.75H66.0266C66.0806 22.082 66.4406 23.063 67.1066 23.693C67.7726 24.323 68.6006 24.638 69.5906 24.638C70.4726 24.638 71.2016 24.422 71.7776 23.99C72.3716 23.558 72.7496 22.973 72.9116 22.235H76.9346C76.7366 23.279 76.3136 24.215 75.6656 25.043C75.0176 25.871 74.1806 26.519 73.1546 26.987C72.1466 27.455 71.0216 27.689 69.7796 27.689C68.3216 27.689 67.0256 27.383 65.8916 26.771C64.7576 26.141 63.8756 25.25 63.2456 24.098C62.6156 22.946 62.3006 21.587 62.3006 20.021C62.3006 18.455 62.6156 17.096 63.2456 15.944C63.8756 14.774 64.7576 13.883 65.8916 13.271C67.0256 12.659 68.3216 12.353 69.7796 12.353C71.2556 12.353 72.5426 12.659 73.6406 13.271C74.7566 13.883 75.6116 14.729 76.2056 15.809C76.8176 16.871 77.1236 18.086 77.1236 19.454ZM73.2896 19.076C73.3436 17.852 73.0196 16.925 72.3176 16.295C71.6336 15.665 70.7876 15.35 69.7796 15.35C68.7536 15.35 67.8896 15.665 67.1876 16.295C66.4856 16.925 66.0986 17.852 66.0266 19.076H73.2896ZM93.8931 19.454C93.8931 19.832 93.8481 20.264 93.7581 20.75H82.7961C82.8501 22.082 83.2101 23.063 83.8761 23.693C84.5421 24.323 85.3701 24.638 86.3601 24.638C87.2421 24.638 87.9711 24.422 88.5471 23.99C89.1411 23.558 89.5191 22.973 89.6811 22.235H93.7041C93.5061 23.279 93.0831 24.215 92.4351 25.043C91.7871 25.871 90.9501 26.519 89.9241 26.987C88.9161 27.455 87.7911 27.689 86.5491 27.689C85.0911 27.689 83.7951 27.383 82.6611 26.771C81.5271 26.141 80.6451 25.25 80.0151 24.098C79.3851 22.946 79.0701 21.587 79.0701 20.021C79.0701 18.455 79.3851 17.096 80.0151 15.944C80.6451 14.774 81.5271 13.883 82.6611 13.271C83.7951 12.659 85.0911 12.353 86.5491 12.353C88.0251 12.353 89.3121 12.659 90.4101 13.271C91.5261 13.883 92.3811 14.729 92.9751 15.809C93.5871 16.871 93.8931 18.086 93.8931 19.454ZM90.0591 19.076C90.1131 17.852 89.7891 16.925 89.0871 16.295C88.4031 15.665 87.5571 15.35 86.5491 15.35C85.5231 15.35 84.6591 15.665 83.9571 16.295C83.2551 16.925 82.8681 17.852 82.7961 19.076H90.0591ZM104.588 24.233V27.5H102.59C100.916 27.5 99.6287 27.095 98.7287 26.285C97.8467 25.475 97.4057 24.125 97.4057 22.235V15.755H95.3267V12.542H97.4057V8.843H101.213V12.542H104.561V15.755H101.213V22.289C101.213 23.009 101.357 23.513 101.645 23.801C101.933 24.089 102.419 24.233 103.103 24.233H104.588Z" fill="#23262F"/>
<defs>
<linearGradient id="paint0_linear" x1="17.9995" y1="-0.595703" x2="17.9995" y2="36.5946" gradientUnits="userSpaceOnUse">
<stop stop-color="#22AFFF"/>
<stop offset="1" stop-color="#1D41FF"/>
</linearGradient>
<linearGradient id="paint1_linear" x1="18.5649" y1="9.76953" x2="18.5649" y2="58.4566" gradientUnits="userSpaceOnUse">
<stop stop-color="#1B3573"/>
<stop offset="1" stop-color="#131E39"/>
</linearGradient>
<linearGradient id="paint2_linear" x1="9.5625" y1="18" x2="-3.375" y2="37.125" gradientUnits="userSpaceOnUse">
<stop stop-color="#FCFCFD"/>
<stop offset="1" stop-color="white" stop-opacity="0"/>
</linearGradient>
<linearGradient id="paint3_linear" x1="18.5625" y1="13.5" x2="30.375" y2="56.25" gradientUnits="userSpaceOnUse">
<stop stop-color="white"/>
<stop offset="1" stop-color="#192E5F"/>
</linearGradient>
<clipPath id="clip0">
<rect width="36" height="36" fill="white"/>
</clipPath>
</defs>
</svg>
