<svg width="146" height="36" viewBox="0 0 146 36" fill="none" xmlns="http://www.w3.org/2000/svg">
<path d="M59.256 10.368V13.56H54.24V27H50.496V13.56H45.48V10.368H59.256ZM72.6302 14.376C71.9102 16.808 71.1582 19.088 70.3742 21.216C69.5902 23.344 68.7342 25.408 67.8062 27.408C67.4702 28.128 67.1342 28.736 66.7982 29.232C66.4622 29.744 66.0942 30.16 65.6942 30.48C65.2942 30.816 64.8382 31.056 64.3262 31.2C63.8302 31.36 63.2462 31.44 62.5742 31.44C62.0142 31.44 61.4942 31.384 61.0142 31.272C60.5502 31.176 60.1662 31.064 59.8622 30.936L60.4862 28.08C60.8542 28.208 61.1822 28.296 61.4702 28.344C61.7582 28.392 62.0622 28.416 62.3822 28.416C63.0222 28.416 63.5102 28.24 63.8462 27.888C64.1982 27.552 64.4942 27.08 64.7342 26.472C63.9182 24.872 63.1022 23.08 62.2862 21.096C61.4702 19.096 60.7022 16.856 59.9822 14.376H63.7742C63.9342 15 64.1182 15.68 64.3262 16.416C64.5502 17.136 64.7822 17.872 65.0222 18.624C65.2622 19.36 65.5022 20.08 65.7422 20.784C65.9982 21.488 66.2382 22.128 66.4622 22.704C66.6702 22.128 66.8862 21.488 67.1102 20.784C67.3342 20.08 67.5502 19.36 67.7582 18.624C67.9822 17.872 68.1902 17.136 68.3822 16.416C68.5902 15.68 68.7742 15 68.9342 14.376H72.6302ZM82.6352 20.784C82.6352 19.68 82.3872 18.8 81.8912 18.144C81.3952 17.472 80.6592 17.136 79.6832 17.136C79.3632 17.136 79.0672 17.152 78.7952 17.184C78.5232 17.2 78.2992 17.224 78.1232 17.256V23.712C78.3472 23.856 78.6352 23.976 78.9872 24.072C79.3552 24.168 79.7232 24.216 80.0912 24.216C81.7872 24.216 82.6352 23.072 82.6352 20.784ZM86.2832 20.688C86.2832 21.664 86.1632 22.552 85.9232 23.352C85.6832 24.152 85.3312 24.84 84.8672 25.416C84.4032 25.992 83.8272 26.44 83.1392 26.76C82.4512 27.08 81.6592 27.24 80.7632 27.24C80.2672 27.24 79.8032 27.192 79.3712 27.096C78.9392 27 78.5232 26.864 78.1232 26.688V31.44H74.5472V14.808C74.8672 14.712 75.2352 14.624 75.6512 14.544C76.0672 14.448 76.4992 14.368 76.9472 14.304C77.4112 14.24 77.8752 14.192 78.3392 14.16C78.8192 14.112 79.2752 14.088 79.7072 14.088C80.7472 14.088 81.6752 14.248 82.4912 14.568C83.3072 14.872 83.9952 15.312 84.5552 15.888C85.1152 16.448 85.5392 17.136 85.8272 17.952C86.1312 18.768 86.2832 19.68 86.2832 20.688ZM92.6076 18.792C92.9596 18.456 93.3276 18.088 93.7116 17.688C94.1116 17.288 94.4956 16.896 94.8636 16.512C95.2316 16.112 95.5836 15.728 95.9196 15.36C96.2556 14.992 96.5516 14.664 96.8076 14.376H101.152C100.832 14.712 100.432 15.128 99.9516 15.624C99.4876 16.12 98.9916 16.64 98.4636 17.184C97.9356 17.712 97.3996 18.24 96.8556 18.768C96.3276 19.296 95.8236 19.768 95.3436 20.184C95.8236 20.552 96.3356 21.008 96.8796 21.552C97.4236 22.096 97.9516 22.68 98.4636 23.304C98.9916 23.928 99.4876 24.56 99.9516 25.2C100.432 25.84 100.84 26.44 101.176 27H97.0956C96.8076 26.568 96.4796 26.12 96.1116 25.656C95.7436 25.176 95.3596 24.712 94.9596 24.264C94.5596 23.8 94.1516 23.368 93.7356 22.968C93.3356 22.568 92.9596 22.224 92.6076 21.936V27H89.0316V14.376H92.6076V18.792ZM109.157 17.304C109.141 17.768 109.117 18.264 109.085 18.792C109.069 19.304 109.029 19.824 108.965 20.352C108.901 20.864 108.812 21.368 108.701 21.864C108.605 22.36 108.477 22.824 108.317 23.256C108.125 23.768 107.877 24.248 107.573 24.696C107.285 25.128 106.909 25.52 106.445 25.872C105.997 26.224 105.445 26.52 104.789 26.76C104.149 26.984 103.397 27.136 102.533 27.216L102.053 24.24C102.869 24.08 103.501 23.856 103.949 23.568C104.397 23.264 104.733 22.88 104.957 22.416C105.133 22.016 105.269 21.552 105.365 21.024C105.477 20.496 105.557 19.944 105.605 19.368C105.653 18.776 105.677 18.176 105.677 17.568C105.693 16.96 105.701 16.376 105.701 15.816V14.376H115.181V27H111.605V17.304H109.157ZM130.035 14.376V27H126.435C126.435 26.2 126.443 25.408 126.459 24.624C126.475 23.824 126.491 23.088 126.507 22.416C126.523 21.744 126.539 21.16 126.555 20.664C126.587 20.152 126.603 19.776 126.603 19.536C126.139 20.192 125.675 20.856 125.211 21.528C124.747 22.2 124.299 22.864 123.867 23.52C123.451 24.16 123.051 24.776 122.667 25.368C122.299 25.96 121.971 26.504 121.683 27H118.539V14.376H122.115C122.115 15.176 122.107 15.944 122.091 16.68C122.091 17.4 122.083 18.056 122.067 18.648C122.051 19.24 122.035 19.76 122.019 20.208C122.003 20.64 121.995 20.976 121.995 21.216C122.955 19.808 123.835 18.544 124.635 17.424C125.451 16.304 126.243 15.288 127.011 14.376H130.035ZM136.975 18.792C137.327 18.456 137.695 18.088 138.079 17.688C138.479 17.288 138.863 16.896 139.231 16.512C139.599 16.112 139.951 15.728 140.287 15.36C140.623 14.992 140.919 14.664 141.175 14.376H145.519C145.199 14.712 144.799 15.128 144.319 15.624C143.855 16.12 143.359 16.64 142.831 17.184C142.303 17.712 141.767 18.24 141.223 18.768C140.695 19.296 140.191 19.768 139.711 20.184C140.191 20.552 140.703 21.008 141.247 21.552C141.791 22.096 142.319 22.68 142.831 23.304C143.359 23.928 143.855 24.56 144.319 25.2C144.799 25.84 145.207 26.44 145.543 27H141.463C141.175 26.568 140.847 26.12 140.479 25.656C140.111 25.176 139.727 24.712 139.327 24.264C138.927 23.8 138.519 23.368 138.103 22.968C137.703 22.568 137.327 22.224 136.975 21.936V27H133.399V14.376H136.975V18.792Z" fill="white"/>
<mask id="mask0_69_10582" style="mask-type:luminance" maskUnits="userSpaceOnUse" x="0" y="0" width="36" height="36">
<path d="M36 0H0V36H36V0Z" fill="white"/>
</mask>
<g mask="url(#mask0_69_10582)">
<path d="M14.9026 1.19257C16.8189 0.0862002 19.1798 0.0861996 21.0961 1.19257L31.0065 6.9143C32.9228 8.02067 34.1032 10.0654 34.1032 12.2781V23.7216C34.1032 25.9343 32.9228 27.979 31.0065 29.0854L21.0961 34.8071C19.1798 35.9135 16.8189 35.9135 14.9026 34.8071L4.99228 29.0854C3.07599 27.979 1.89551 25.9343 1.89551 23.7216V12.2781C1.89551 10.0654 3.07599 8.02067 4.99228 6.9143L14.9026 1.19257Z" fill="url(#paint0_linear_69_10582)"/>
<mask id="mask1_69_10582" style="mask-type:alpha" maskUnits="userSpaceOnUse" x="1" y="0" width="34" height="36">
<path d="M14.9026 1.19257C16.8189 0.0862002 19.1798 0.0861996 21.0961 1.19257L31.0065 6.9143C32.9228 8.02067 34.1032 10.0654 34.1032 12.2781V23.7216C34.1032 25.9343 32.9228 27.979 31.0065 29.0854L21.0961 34.8071C19.1798 35.9135 16.8189 35.9135 14.9026 34.8071L4.99228 29.0854C3.07599 27.979 1.89551 25.9343 1.89551 23.7216V12.2781C1.89551 10.0654 3.07599 8.02067 4.99228 6.9143L14.9026 1.19257Z" fill="#83E1E1"/>
</mask>
<g mask="url(#mask1_69_10582)">
<path d="M7.06987 14.0314L-3.55766 20.6564L-12.7647 26.8436C-13.1071 27.0737 -13.3125 27.4592 -13.3125 27.8717V57.2177C-13.3125 57.9018 -12.7579 58.4564 -12.0738 58.4564H49.2036C49.8877 58.4564 50.4423 57.9018 50.4423 57.2177V31.0056C50.4423 30.5813 50.2251 30.1865 49.8667 29.9593L18.8472 10.3004C18.3574 9.98994 17.7178 10.0609 17.3079 10.4711L11.9644 15.8188C11.4805 16.303 10.6957 16.303 10.2119 15.8188L8.60139 14.2071C8.19394 13.7993 7.55906 13.7265 7.06987 14.0314Z" fill="#004CA7"/>
<path d="M7.45467 16.875L1.125 21.975H5.97115C6.44588 21.975 8.21291 24.575 9.03709 25.875L10.125 19.775L7.45467 16.875Z" fill="url(#paint1_linear_69_10582)"/>
<path d="M14.6468 19.125L18 13.5L31.5 21.375L28.408 22.7465L20.8125 22.5L13.5 29.25L16.875 21.375L14.6468 19.125Z" fill="url(#paint2_linear_69_10582)"/>
</g>
</g>
<defs>
<linearGradient id="paint0_linear_69_10582" x1="17.9994" y1="-0.595353" x2="17.9994" y2="36.595" gradientUnits="userSpaceOnUse">
<stop stop-color="#22AFFF"/>
<stop offset="1" stop-color="#1D41FF"/>
</linearGradient>
<linearGradient id="paint1_linear_69_10582" x1="9.5625" y1="18" x2="-3.375" y2="37.125" gradientUnits="userSpaceOnUse">
<stop stop-color="#FCFCFD"/>
<stop offset="1" stop-color="white" stop-opacity="0"/>
</linearGradient>
<linearGradient id="paint2_linear_69_10582" x1="18.5625" y1="13.5" x2="30.375" y2="56.25" gradientUnits="userSpaceOnUse">
<stop stop-color="white"/>
<stop offset="1" stop-color="#192E5F"/>
</linearGradient>
</defs>
</svg>
